<?xml version="1.0" encoding="UTF-8"?>
<svg width="32px" height="20px" viewBox="0 0 32 20" version="1.1" xmlns="http://www.w3.org/2000/svg" xmlns:xlink="http://www.w3.org/1999/xlink">
    <!-- Generator: Sketch 59.1 (86144) - https://sketch.com -->
    <title>Outlined/UI/visibility</title>
    <desc>Created with Sketch.</desc>
    <g id="Page-1" stroke="none" stroke-width="1" fill="none" fill-rule="evenodd">
        <g id="Icon-Set" transform="translate(-674.000000, -823.000000)" fill="#000000" fill-rule="nonzero">
            <g id="Icons/Outlined/UI/visibility" transform="translate(674.000000, 817.000000)">
                <path d="M16,5.99999997 C22.3568818,6.14508917 28.1013798,9.82558015 30.89,15.54 L30.89,15.54 L31.13,16 L30.89,16.46 C28.1013798,22.1744198 22.3568818,25.8549108 16,26 C9.6431182,25.8549108 3.89862021,22.1744198 1.10999995,16.46 L1.10999995,16.46 L0.869999953,16 L1.10999995,15.54 C3.89862021,9.82558015 9.6431182,6.14508917 16,5.99999997 Z M16,7.99999998 C11.581722,7.99999998 7.99999998,11.581722 7.99999998,16 C7.99999998,20.418278 11.581722,24 16,24 C20.418278,24 24,20.418278 24,16 C24,13.8782681 23.1571453,11.8434368 21.6568543,10.3431457 C20.1565632,8.8428547 18.1217319,7.99999998 16,7.99999998 Z M7.27999997,11.11 C5.59319739,12.4532719 4.18658598,14.1147042 3.13999996,16 C4.18658598,17.8852958 5.59319739,19.5467281 7.27999997,20.89 C5.57711709,17.8523781 5.57711709,14.1476219 7.27999997,11.11 Z M24.72,11.11 C26.4228829,14.1476219 26.4228829,17.8523781 24.72,20.89 C26.4068026,19.5467281 27.813414,17.8852958 28.86,16 C27.813414,14.1147042 26.4068026,12.4532719 24.72,11.11 Z M16,12 C18.209139,12 20,13.790861 20,16 C20,18.209139 18.209139,20 16,20 C13.790861,20 12,18.209139 12,16 C12,13.790861 13.790861,12 16,12 Z M16,14 C14.8954305,14 14,14.8954305 14,16 C14,17.1045695 14.8954305,18 16,18 C17.1045695,18 18,17.1045695 18,16 C18,14.8954305 17.1045695,14 16,14 Z" id="Style"></path>
            </g>
        </g>
    </g>
</svg>